<svg width="9" height="10" viewBox="0 0 9 10" fill="none" xmlns="http://www.w3.org/2000/svg">
<path d="M7.12501 4.23751C7.1252 4.29976 7.11284 4.36126 7.08883 4.41751C7.06482 4.47375 7.02977 4.5233 6.98626 4.56251L4.73626 6.57501C4.66916 6.6363 4.585 6.6698 4.49814 6.6698C4.41128 6.6698 4.32711 6.6363 4.26001 6.57501L2.01001 4.49168C1.93343 4.42096 1.88527 4.31933 1.87613 4.20915C1.86699 4.09897 1.89761 3.98927 1.96126 3.90418C2.02491 3.81909 2.11638 3.76558 2.21554 3.75542C2.3147 3.74526 2.41343 3.77929 2.49001 3.85001L4.50001 5.71251L6.51001 3.91251C6.56506 3.86156 6.63208 3.8292 6.70316 3.81925C6.77425 3.8093 6.8464 3.82218 6.9111 3.85637C6.9758 3.89056 7.03033 3.94463 7.06824 4.01217C7.10615 4.07972 7.12585 4.15792 7.12501 4.23751Z" fill="black"/>
</svg>
