<svg width="15" height="15" viewBox="0 0 15 15" fill="none" xmlns="http://www.w3.org/2000/svg">
<path d="M6.35627 3.12498C6.44964 3.12466 6.5419 3.14527 6.62626 3.18529C6.71062 3.22531 6.78494 3.28372 6.84377 3.35623L9.86252 7.10623C9.95445 7.21806 10.0047 7.35834 10.0047 7.50311C10.0047 7.64787 9.95445 7.78815 9.86252 7.89998L6.73752 11.65C6.63143 11.7776 6.47899 11.8579 6.31372 11.8731C6.14846 11.8884 5.9839 11.8373 5.85627 11.7312C5.72863 11.6251 5.64837 11.4727 5.63313 11.3074C5.61789 11.1422 5.66893 10.9776 5.77502 10.85L8.56877 7.49998L5.86877 4.14998C5.79234 4.05824 5.74379 3.94653 5.72887 3.82806C5.71394 3.70959 5.73327 3.58933 5.78455 3.4815C5.83584 3.37367 5.91694 3.28278 6.01826 3.2196C6.11958 3.15642 6.23687 3.12359 6.35627 3.12498Z" fill="black"/>
</svg>
