<svg width="15" height="15" viewBox="0 0 15 15" fill="none" xmlns="http://www.w3.org/2000/svg">
<path d="M8.64373 11.875C8.55036 11.8753 8.4581 11.8547 8.37374 11.8147C8.28938 11.7747 8.21505 11.7163 8.15623 11.6438L5.13748 7.89377C5.04555 7.78194 4.9953 7.64166 4.9953 7.49689C4.9953 7.35213 5.04555 7.21185 5.13748 7.10002L8.26248 3.35002C8.36857 3.22238 8.52101 3.14212 8.68628 3.12688C8.85154 3.11164 9.0161 3.16268 9.14373 3.26877C9.27137 3.37486 9.35163 3.5273 9.36687 3.69257C9.38211 3.85783 9.33107 4.02238 9.22498 4.15002L6.43123 7.50002L9.13123 10.85C9.20766 10.9418 9.25621 11.0535 9.27113 11.1719C9.28606 11.2904 9.26673 11.4107 9.21545 11.5185C9.16416 11.6263 9.08306 11.7172 8.98174 11.7804C8.88042 11.8436 8.76313 11.8764 8.64373 11.875Z" fill="black"/>
</svg>
