<svg width="17" height="17" viewBox="0 0 17 17" fill="none" xmlns="http://www.w3.org/2000/svg">
<path d="M12.8612 11.9581L12.0204 12.7897C11.4006 13.3974 10.5967 14.1794 9.60784 15.1357C9.31065 15.423 8.91342 15.5837 8.50001 15.5837C8.08661 15.5837 7.68938 15.423 7.39218 15.1357L4.91939 12.7302C4.60843 12.4249 4.34847 12.1678 4.1388 11.9581C3.27631 11.0955 2.68896 9.9966 2.45103 8.80024C2.21309 7.60388 2.33525 6.36383 2.80207 5.2369C3.26888 4.10997 4.05938 3.14678 5.0736 2.46911C6.08782 1.79144 7.28022 1.42973 8.50001 1.42973C9.7198 1.42973 10.9122 1.79144 11.9264 2.46911C12.9406 3.14678 13.7311 4.10997 14.198 5.2369C14.6648 6.36383 14.7869 7.60388 14.549 8.80024C14.3111 9.9966 13.7237 11.0955 12.8612 11.9581ZM10.2708 7.79167C10.2708 7.32202 10.0843 6.8716 9.75218 6.5395C9.42008 6.20741 8.96967 6.02084 8.50001 6.02084C8.03036 6.02084 7.57994 6.20741 7.24784 6.5395C6.91575 6.8716 6.72918 7.32202 6.72918 7.79167C6.72918 8.26132 6.91575 8.71174 7.24784 9.04384C7.57994 9.37593 8.03036 9.5625 8.50001 9.5625C8.96967 9.5625 9.42008 9.37593 9.75218 9.04384C10.0843 8.71174 10.2708 8.26132 10.2708 7.79167Z" fill="#056EA1"/>
</svg>
